<mxfile host="app.diagrams.net" agent="Mozilla/5.0 (Windows NT 10.0; Win64; x64) AppleWebKit/537.36 (KHTML, like Gecko) Chrome/133.0.0.0 Safari/537.36" version="26.1.0">
  <diagram name="Sayfa -1" id="2M_Xkf0fmECvqoLl79tE">
    <mxGraphModel dx="443" dy="484" grid="1" gridSize="10" guides="1" tooltips="1" connect="1" arrows="1" fold="1" page="1" pageScale="1" pageWidth="827" pageHeight="1169" math="0" shadow="0">
      <root>
        <mxCell id="0" />
        <mxCell id="1" parent="0" />
        <mxCell id="LqKi0_bkVNLGA00sbf6s-9" value="10" style="rounded=0;orthogonalLoop=1;jettySize=auto;html=1;exitX=1;exitY=1;exitDx=0;exitDy=0;entryX=0;entryY=0;entryDx=0;entryDy=0;endArrow=none;startFill=0;" edge="1" parent="1" source="LqKi0_bkVNLGA00sbf6s-1" target="LqKi0_bkVNLGA00sbf6s-2">
          <mxGeometry relative="1" as="geometry" />
        </mxCell>
        <mxCell id="LqKi0_bkVNLGA00sbf6s-1" value="B" style="ellipse;whiteSpace=wrap;html=1;aspect=fixed;" vertex="1" parent="1">
          <mxGeometry x="40" y="40" width="40" height="40" as="geometry" />
        </mxCell>
        <mxCell id="LqKi0_bkVNLGA00sbf6s-10" value="2.5" style="edgeStyle=none;shape=connector;rounded=0;orthogonalLoop=1;jettySize=auto;html=1;exitX=1;exitY=0;exitDx=0;exitDy=0;entryX=0;entryY=1;entryDx=0;entryDy=0;strokeColor=default;align=center;verticalAlign=middle;fontFamily=Helvetica;fontSize=11;fontColor=default;labelBackgroundColor=default;startFill=0;endArrow=none;" edge="1" parent="1" source="LqKi0_bkVNLGA00sbf6s-2" target="LqKi0_bkVNLGA00sbf6s-5">
          <mxGeometry relative="1" as="geometry" />
        </mxCell>
        <mxCell id="LqKi0_bkVNLGA00sbf6s-11" value="2.2" style="edgeStyle=none;shape=connector;rounded=0;orthogonalLoop=1;jettySize=auto;html=1;exitX=0;exitY=1;exitDx=0;exitDy=0;strokeColor=default;align=center;verticalAlign=middle;fontFamily=Helvetica;fontSize=11;fontColor=default;labelBackgroundColor=default;startFill=0;endArrow=none;" edge="1" parent="1" source="LqKi0_bkVNLGA00sbf6s-2" target="LqKi0_bkVNLGA00sbf6s-3">
          <mxGeometry relative="1" as="geometry" />
        </mxCell>
        <mxCell id="LqKi0_bkVNLGA00sbf6s-2" value="A" style="ellipse;whiteSpace=wrap;html=1;aspect=fixed;" vertex="1" parent="1">
          <mxGeometry x="140" y="120" width="40" height="40" as="geometry" />
        </mxCell>
        <mxCell id="LqKi0_bkVNLGA00sbf6s-3" value="D" style="ellipse;whiteSpace=wrap;html=1;aspect=fixed;" vertex="1" parent="1">
          <mxGeometry x="40" y="200" width="40" height="40" as="geometry" />
        </mxCell>
        <mxCell id="LqKi0_bkVNLGA00sbf6s-4" value="H" style="ellipse;whiteSpace=wrap;html=1;aspect=fixed;" vertex="1" parent="1">
          <mxGeometry x="320" y="280" width="40" height="40" as="geometry" />
        </mxCell>
        <mxCell id="LqKi0_bkVNLGA00sbf6s-13" value="1.6" style="edgeStyle=none;shape=connector;rounded=0;orthogonalLoop=1;jettySize=auto;html=1;exitX=1;exitY=0.5;exitDx=0;exitDy=0;entryX=0;entryY=0.5;entryDx=0;entryDy=0;strokeColor=default;align=center;verticalAlign=middle;fontFamily=Helvetica;fontSize=11;fontColor=default;labelBackgroundColor=default;startFill=0;endArrow=none;" edge="1" parent="1" source="LqKi0_bkVNLGA00sbf6s-5" target="LqKi0_bkVNLGA00sbf6s-7">
          <mxGeometry relative="1" as="geometry" />
        </mxCell>
        <mxCell id="LqKi0_bkVNLGA00sbf6s-15" value="3" style="edgeStyle=none;shape=connector;rounded=0;orthogonalLoop=1;jettySize=auto;html=1;exitX=0.5;exitY=1;exitDx=0;exitDy=0;strokeColor=default;align=center;verticalAlign=middle;fontFamily=Helvetica;fontSize=11;fontColor=default;labelBackgroundColor=default;startFill=0;endArrow=none;" edge="1" parent="1" source="LqKi0_bkVNLGA00sbf6s-5" target="LqKi0_bkVNLGA00sbf6s-6">
          <mxGeometry relative="1" as="geometry" />
        </mxCell>
        <mxCell id="LqKi0_bkVNLGA00sbf6s-5" value="C" style="ellipse;whiteSpace=wrap;html=1;aspect=fixed;" vertex="1" parent="1">
          <mxGeometry x="240" y="40" width="40" height="40" as="geometry" />
        </mxCell>
        <mxCell id="LqKi0_bkVNLGA00sbf6s-16" value="3.3" style="edgeStyle=none;shape=connector;rounded=0;orthogonalLoop=1;jettySize=auto;html=1;exitX=1;exitY=0.5;exitDx=0;exitDy=0;strokeColor=default;align=center;verticalAlign=middle;fontFamily=Helvetica;fontSize=11;fontColor=default;labelBackgroundColor=default;startFill=0;endArrow=none;" edge="1" parent="1" source="LqKi0_bkVNLGA00sbf6s-6" target="LqKi0_bkVNLGA00sbf6s-8">
          <mxGeometry relative="1" as="geometry" />
        </mxCell>
        <mxCell id="LqKi0_bkVNLGA00sbf6s-17" value="1.2" style="edgeStyle=none;shape=connector;rounded=0;orthogonalLoop=1;jettySize=auto;html=1;exitX=1;exitY=1;exitDx=0;exitDy=0;strokeColor=default;align=center;verticalAlign=middle;fontFamily=Helvetica;fontSize=11;fontColor=default;labelBackgroundColor=default;startFill=0;endArrow=none;" edge="1" parent="1" source="LqKi0_bkVNLGA00sbf6s-6" target="LqKi0_bkVNLGA00sbf6s-4">
          <mxGeometry relative="1" as="geometry" />
        </mxCell>
        <mxCell id="LqKi0_bkVNLGA00sbf6s-6" value="E" style="ellipse;whiteSpace=wrap;html=1;aspect=fixed;" vertex="1" parent="1">
          <mxGeometry x="240" y="200" width="40" height="40" as="geometry" />
        </mxCell>
        <mxCell id="LqKi0_bkVNLGA00sbf6s-14" value="1.5" style="edgeStyle=none;shape=connector;rounded=0;orthogonalLoop=1;jettySize=auto;html=1;exitX=0.5;exitY=1;exitDx=0;exitDy=0;entryX=0.5;entryY=0;entryDx=0;entryDy=0;strokeColor=default;align=center;verticalAlign=middle;fontFamily=Helvetica;fontSize=11;fontColor=default;labelBackgroundColor=default;startFill=0;endArrow=none;" edge="1" parent="1" source="LqKi0_bkVNLGA00sbf6s-7" target="LqKi0_bkVNLGA00sbf6s-8">
          <mxGeometry relative="1" as="geometry" />
        </mxCell>
        <mxCell id="LqKi0_bkVNLGA00sbf6s-7" value="F" style="ellipse;whiteSpace=wrap;html=1;aspect=fixed;" vertex="1" parent="1">
          <mxGeometry x="400" y="40" width="40" height="40" as="geometry" />
        </mxCell>
        <mxCell id="LqKi0_bkVNLGA00sbf6s-8" value="G" style="ellipse;whiteSpace=wrap;html=1;aspect=fixed;" vertex="1" parent="1">
          <mxGeometry x="400" y="200" width="40" height="40" as="geometry" />
        </mxCell>
        <mxCell id="LqKi0_bkVNLGA00sbf6s-12" value="2" style="edgeStyle=none;shape=connector;rounded=0;orthogonalLoop=1;jettySize=auto;html=1;exitX=1;exitY=1;exitDx=0;exitDy=0;strokeColor=default;align=center;verticalAlign=middle;fontFamily=Helvetica;fontSize=11;fontColor=default;labelBackgroundColor=default;startFill=0;endArrow=none;entryX=0;entryY=0;entryDx=0;entryDy=0;" edge="1" parent="1" source="LqKi0_bkVNLGA00sbf6s-2" target="LqKi0_bkVNLGA00sbf6s-6">
          <mxGeometry relative="1" as="geometry">
            <mxPoint x="210" y="210" as="targetPoint" />
          </mxGeometry>
        </mxCell>
      </root>
    </mxGraphModel>
  </diagram>
</mxfile>
